<svg width="38" height="38" viewBox="0 0 38 38" fill="none" xmlns="http://www.w3.org/2000/svg">
<circle cx="19" cy="19" r="19" fill="#1663C7"/>
<path d="M17.906 21.626C17.906 21.002 18.044 20.486 18.32 20.078C18.608 19.67 19.022 19.22 19.562 18.728C19.958 18.368 20.246 18.068 20.426 17.828C20.618 17.576 20.714 17.294 20.714 16.982C20.714 16.538 20.534 16.19 20.174 15.938C19.826 15.674 19.358 15.542 18.77 15.542C18.206 15.542 17.702 15.662 17.258 15.902C16.826 16.13 16.46 16.454 16.16 16.874L13.982 15.596C14.486 14.828 15.164 14.234 16.016 13.814C16.88 13.394 17.9 13.184 19.076 13.184C20.456 13.184 21.56 13.478 22.388 14.066C23.228 14.654 23.648 15.47 23.648 16.514C23.648 17.006 23.564 17.438 23.396 17.81C23.24 18.182 23.042 18.5 22.802 18.764C22.574 19.016 22.274 19.31 21.902 19.646C21.458 20.042 21.134 20.378 20.93 20.654C20.726 20.918 20.624 21.242 20.624 21.626H17.906ZM19.274 26.144C18.782 26.144 18.368 25.988 18.032 25.676C17.708 25.352 17.546 24.962 17.546 24.506C17.546 24.05 17.708 23.672 18.032 23.372C18.356 23.06 18.77 22.904 19.274 22.904C19.778 22.904 20.192 23.06 20.516 23.372C20.84 23.672 21.002 24.05 21.002 24.506C21.002 24.962 20.834 25.352 20.498 25.676C20.174 25.988 19.766 26.144 19.274 26.144Z" fill="white"/>
</svg>
