<svg width="76" height="80" viewBox="0 0 76 80" fill="none" xmlns="http://www.w3.org/2000/svg">
<path d="M3 26C3 14.9543 11.9543 6 23 6H73V56C73 67.0457 64.0457 76 53 76H3V26Z" fill="#035FD7" fill-opacity="0.1"/>
<path d="M13.8488 35.2094H19.6906V61.9258C19.6906 65.0541 22.3721 67.5938 25.6065 67.5938H40.837L40.995 78.2262C40.9982 78.4559 41.0602 78.6809 41.175 78.8798C41.2899 79.0787 41.4538 79.2449 41.6511 79.3625C41.8485 79.48 42.0726 79.5451 42.3022 79.5514C42.5319 79.5577 42.7593 79.5051 42.9628 79.3986L49.2726 76.0902L55.5822 79.3993C55.7862 79.5063 56.0143 79.559 56.2446 79.5524C56.4749 79.5459 56.6996 79.4802 56.8972 79.3618C57.0948 79.2433 57.2586 79.076 57.3729 78.876C57.4872 78.676 57.5482 78.45 57.55 78.2196L57.6555 67.5938H60.2012C63.4356 67.5938 66.05 65.0541 66.05 61.9258V22.6636C66.05 18.0623 62.1846 14.3812 57.4125 14.3812H16.2352C15.8992 14.2469 15.5633 14.278 15.2139 14.278C11.2314 14.278 8 17.3751 8 21.2201V29.5343C8 32.6631 10.6144 35.2094 13.8488 35.2094ZM49.2726 65.412C45.4147 65.412 42.2761 62.432 42.2761 58.7692C42.2761 55.1064 45.4147 52.1272 49.2726 52.1272C53.1305 52.1272 56.2691 55.1071 56.2691 58.7699C56.2691 62.4327 53.1304 65.412 49.2726 65.412ZM49.8966 73.3832C49.7041 73.2822 49.49 73.2295 49.2725 73.2295C49.0551 73.2295 48.841 73.2822 48.6484 73.3832L43.6497 76.0046L43.505 66.259C45.1798 67.4491 47.1818 68.0919 49.2364 68.0991C51.291 68.1063 53.2975 67.4777 54.9806 66.2993L54.8844 75.9984L49.8966 73.3832ZM63.3625 22.6636V61.9258C63.3625 63.5726 61.9537 64.9063 60.2012 64.9063H57.6822L57.6975 63.3581C58.5214 61.9686 58.9563 60.3831 58.9566 58.7677C58.9566 53.6229 54.6124 49.4382 49.2726 49.4382C43.9328 49.4382 39.5886 53.6241 39.5886 58.7688C39.5882 60.3339 39.9961 61.8721 40.7722 63.2313L40.797 64.9063H25.6065C23.854 64.9063 22.3781 63.5726 22.3781 61.9258V21.2201C22.3781 19.638 21.8787 18.1437 20.9554 17.0687H57.4125C60.7027 17.0687 63.3625 19.5442 63.3625 22.6636ZM10.6875 21.2201C10.6875 18.857 12.7031 16.9344 15.2563 16.9344V17.0687H16.0286C17.04 17.1957 17.9703 17.6876 18.6446 18.452C19.3189 19.2164 19.6909 20.2008 19.6906 21.2201V32.5219H13.8488C12.0962 32.5219 10.6875 31.1811 10.6875 29.5343V21.2201Z" fill="#1663C7"/>
<path d="M33.8 37.8969H39.0406V43.1375C39.0406 43.4939 39.1822 43.8357 39.4342 44.0877C39.6862 44.3397 40.028 44.4813 40.3844 44.4813H45.7594C46.1157 44.4813 46.4575 44.3397 46.7095 44.0877C46.9615 43.8357 47.1031 43.4939 47.1031 43.1375V37.8969H52.3437C52.7001 37.8969 53.0419 37.7553 53.2939 37.5033C53.5459 37.2513 53.6875 36.9095 53.6875 36.5531V31.1781C53.6875 30.8217 53.5459 30.48 53.2939 30.2279C53.0419 29.9759 52.7001 29.8344 52.3437 29.8344H47.1031V24.5938C47.1031 24.2374 46.9615 23.8956 46.7095 23.6436C46.4575 23.3916 46.1157 23.25 45.7594 23.25H40.3844C40.028 23.25 39.6862 23.3916 39.4342 23.6436C39.1822 23.8956 39.0406 24.2374 39.0406 24.5938V29.8344H33.8C33.4436 29.8344 33.1018 29.9759 32.8498 30.2279C32.5978 30.48 32.4562 30.8217 32.4562 31.1781V36.5531C32.4562 36.9095 32.5978 37.2513 32.8498 37.5033C33.1018 37.7553 33.4436 37.8969 33.8 37.8969ZM35.1437 32.5219H40.3844C40.7407 32.5219 41.0825 32.3803 41.3345 32.1283C41.5865 31.8763 41.7281 31.5345 41.7281 31.1781V25.9375H44.4156V31.1781C44.4156 31.5345 44.5572 31.8763 44.8092 32.1283C45.0612 32.3803 45.403 32.5219 45.7594 32.5219H51V35.2094H45.7594C45.403 35.2094 45.0612 35.3509 44.8092 35.603C44.5572 35.855 44.4156 36.1967 44.4156 36.5531V41.7938H41.7281V36.5531C41.7281 36.1967 41.5865 35.855 41.3345 35.603C41.0825 35.3509 40.7407 35.2094 40.3844 35.2094H35.1437V32.5219Z" fill="#1663C7"/>
</svg>
