<svg width="76" height="80" viewBox="0 0 76 80" fill="none" xmlns="http://www.w3.org/2000/svg">
<path d="M3 26C3 14.9543 11.9543 6 23 6H73V56C73 67.0457 64.0457 76 53 76H3V26Z" fill="#035FD7" fill-opacity="0.1"/>
<path d="M66.9689 24.5497C66.9689 22.8659 65.599 21.4963 63.9152 21.4963H47.6113V17.2407C47.6113 14.9023 45.7087 13 43.3703 13H32.6297C30.2913 13 28.3887 14.9023 28.3887 17.2407V21.4963H12.0848C10.401 21.4963 9.03106 22.8659 9.03106 24.547L9 39.3739C8.99913 39.8306 9.25953 40.2472 9.67031 40.4463C10.3431 40.7726 11.0358 41.075 11.732 41.3732V61.589C11.732 63.2724 13.1017 64.6418 14.7854 64.6418H61.2143C62.898 64.6418 64.268 63.2724 64.268 61.589V41.0709C64.9804 40.7426 65.6819 40.402 66.3654 40.0416C66.7564 39.8355 67.0009 39.4294 67 38.9872L66.9689 24.5497ZM30.7668 17.2407C30.7668 16.2136 31.6026 15.3782 32.6297 15.3782H43.3703C44.38 15.3782 45.2332 16.2311 45.2332 17.2407V21.4963H30.7668V17.2407ZM61.8898 61.589C61.8898 61.9484 61.5743 62.2636 61.2143 62.2636H14.7854C14.4194 62.2636 14.1102 61.9548 14.1102 61.589V42.316C19.5959 44.3417 25.7309 45.5557 32.4282 45.9219V47.7189C32.4282 48.9446 33.4251 49.9415 34.6508 49.9415H41.3492C42.5749 49.9415 43.5718 48.9446 43.5718 47.7189V45.9018C50.3562 45.4951 56.4934 44.215 61.8898 42.0857V61.589ZM34.8064 47.5633V43.2794H41.1936V47.5633H34.8064ZM43.5718 43.5108V43.124C43.5718 41.8984 42.5749 40.9012 41.3492 40.9012H34.6508C33.4251 40.9012 32.4282 41.8984 32.4282 43.124V43.5387C24.5288 43.093 17.4501 41.4467 11.3796 38.6255L11.4092 24.5497C11.4092 24.1836 11.7187 23.8744 12.0848 23.8744H63.9152C64.2813 23.8744 64.5908 24.1836 64.5908 24.5523L64.6204 38.2661C58.6958 41.2579 51.6161 43.0124 43.5718 43.5108Z" fill="#1663C7"/>
</svg>
