<svg width="40" height="39" viewBox="0 0 40 39" fill="none" xmlns="http://www.w3.org/2000/svg">
<path d="M34.4923 13.3126C33.495 14.3099 32.4978 15.3072 31.5005 16.3045C31.0441 16.7608 30.5877 17.2172 30.1313 17.6736C28.9777 18.8272 27.8241 19.9808 26.6705 21.1345C25.3985 22.4064 24.1266 23.6784 22.8546 24.9503C22.1912 25.6137 21.4982 26.256 20.8601 26.9448C20.7502 27.0632 21.2151 26.7167 21.0545 26.7927C21.1559 26.7505 21.2573 26.7082 21.3587 26.6659C21.2446 26.7124 21.1136 26.7293 20.9911 26.7462C21.1052 26.7293 21.2151 26.7167 21.3291 26.6998C20.3107 26.8307 19.267 26.8181 18.2401 26.8138C18.6627 27.2364 19.0853 27.659 19.5079 28.0816C19.4994 27.042 19.4825 25.9814 19.6093 24.9503C19.5924 25.0644 19.5797 25.1743 19.5628 25.2884C19.5924 25.0644 19.6811 24.8447 19.6811 24.6207C19.622 24.832 19.567 25.0475 19.5079 25.2588C19.3304 25.5504 19.305 25.4996 19.4191 25.3855C19.4867 25.3179 19.5543 25.2503 19.6177 25.1869C19.8501 24.9545 20.0826 24.7221 20.3192 24.4855C20.9615 23.8432 21.6038 23.2008 22.2419 22.5628C22.8969 21.9078 23.5477 21.257 24.2026 20.602C25.3985 19.4061 26.5986 18.206 27.7945 17.0102C28.4115 16.3932 29.0284 15.7762 29.6454 15.1593C30.7356 14.069 31.8301 12.9746 32.9203 11.8843C32.9457 11.859 32.9668 11.8379 32.9922 11.8125C32.3963 11.8125 31.7963 11.8125 31.2005 11.8125C32.1597 12.7717 33.1189 13.731 34.074 14.686C34.2134 14.8254 34.3528 14.9649 34.4923 15.1043C34.9614 15.5734 35.8234 15.6072 36.284 15.1043C36.7488 14.5973 36.7869 13.8113 36.284 13.3126C35.3205 12.3492 34.3528 11.3815 33.3894 10.418C33.2542 10.2828 33.1232 10.1518 32.9879 10.0166C32.502 9.53061 31.6822 9.53061 31.1962 10.0166C30.2201 10.9927 29.2439 11.9689 28.2678 12.945C27.6086 13.6042 26.9536 14.2592 26.2944 14.9184C25.09 16.1227 23.8899 17.3229 22.6856 18.5272C22.0518 19.161 21.4179 19.7949 20.7883 20.4245C19.7191 21.4937 18.6289 22.5374 17.5852 23.6276C17.3274 23.8939 17.1415 24.2362 17.1415 24.6165C17.1584 24.5024 17.171 24.3925 17.1879 24.2784C17.0612 24.6334 17.0527 25.039 17.0274 25.4109C16.9978 25.8081 16.9893 26.2096 16.9809 26.6068C16.9724 27.097 16.9682 27.5872 16.9724 28.0773C16.9766 28.7661 17.5471 29.3408 18.2401 29.3451C19.0811 29.3493 19.9262 29.3366 20.7671 29.2817C21.308 29.2479 21.8912 29.2267 22.3729 28.9521C22.5335 28.8591 22.6603 28.7239 22.7913 28.5929C23.8308 27.5533 24.8703 26.5138 25.9098 25.4743C27.4227 23.9615 28.9355 22.4487 30.444 20.9401C31.2934 20.0907 32.1428 19.2413 32.9922 18.392C34.0486 17.3355 35.105 16.2791 36.1657 15.2184C36.2037 15.1804 36.246 15.1382 36.284 15.1001C36.7531 14.6311 36.7869 13.769 36.284 13.3084C35.7811 12.8478 34.9952 12.814 34.4923 13.3126Z" fill="#1663C7"/>
<path d="M37.6743 10.1308C36.7489 11.0562 35.8192 11.9859 34.8938 12.9113C34.7585 13.0466 34.6275 13.1776 34.4923 13.3128C35.0882 13.3128 35.6882 13.3128 36.284 13.3128C35.3206 12.3493 34.3529 11.3816 33.3894 10.4181C33.2542 10.2829 33.1232 10.1519 32.988 10.0167C32.988 10.6125 32.988 11.2126 32.988 11.8084C33.9303 10.8661 34.8726 9.92374 35.8192 8.97717C35.9079 8.88843 35.9967 8.79969 36.0854 8.71095C36.1066 8.68983 36.1361 8.6687 36.153 8.64334C36.153 8.63912 36.1657 8.63489 36.1657 8.63067C36.1615 8.68983 35.8741 8.80392 36.1108 8.69405C36.0094 8.73631 35.9079 8.77857 35.8065 8.82082C35.8657 8.79969 35.9164 8.78702 35.9798 8.77857C35.8657 8.79547 35.7558 8.80814 35.6417 8.82505C35.6798 8.82082 35.722 8.82082 35.76 8.82505C35.6459 8.80814 35.5361 8.79547 35.422 8.77857C35.4896 8.79124 35.5488 8.80392 35.6121 8.82927C35.5107 8.78702 35.4093 8.74476 35.3079 8.7025C35.5276 8.8166 35.76 8.90956 36.0136 8.90956C35.8023 8.8504 35.5868 8.79547 35.3755 8.73631C35.4727 8.79969 35.5403 8.90956 35.2276 8.62221C35.1051 8.32219 34.9783 8.02639 34.8557 7.72636C34.8557 8.42783 35.553 8.94759 36.0094 9.40397C36.4657 9.86035 36.9263 10.321 37.3827 10.7773C37.4546 10.8492 37.5306 10.9252 37.6025 10.9971C37.6194 11.014 37.6363 11.0351 37.6532 11.0478L37.6616 11.0562C37.687 11.0816 37.6658 11.052 37.5982 10.9717C37.4672 10.7942 37.5687 10.9379 37.5898 10.9886C37.5475 10.8872 37.5053 10.7858 37.463 10.6844C37.4841 10.7393 37.4968 10.7858 37.5053 10.8449C37.4884 10.7309 37.4757 10.621 37.4588 10.5069C37.463 10.5618 37.463 10.6125 37.4588 10.6717C37.4757 10.5576 37.4884 10.4477 37.5053 10.3336C37.4968 10.3886 37.4799 10.4393 37.463 10.4942C37.5053 10.3928 37.5475 10.2914 37.5898 10.19C37.5475 10.3167 37.4546 10.3759 37.6743 10.1308C37.2264 10.621 37.1545 11.445 37.6743 11.9225C38.1603 12.3704 38.9927 12.4465 39.466 11.9225C40.1759 11.145 40.1844 10.0252 39.4533 9.25607C39.3097 9.10395 39.1575 8.96027 39.0139 8.8166C38.4941 8.29683 37.9743 7.77707 37.4546 7.2573C37.3151 7.11785 37.1757 6.9784 37.032 6.83473C37.1545 7.13476 37.2813 7.43056 37.4039 7.73058C37.4039 7.01644 36.7362 6.37835 36.0263 6.37835C36.2376 6.43751 36.4531 6.49245 36.6644 6.55161C35.8615 6.08255 34.9276 6.28961 34.2937 6.91924C34.0698 7.14321 33.8458 7.36717 33.6218 7.59114C32.9711 8.2419 32.3203 8.89266 31.6695 9.54342C31.5132 9.69977 31.3526 9.86035 31.1963 10.0167C30.7103 10.5027 30.7103 11.3225 31.1963 11.8084C32.1555 12.7677 33.1147 13.7269 34.0698 14.6819C34.2092 14.8214 34.3487 14.9608 34.4881 15.1003C34.9741 15.5862 35.7939 15.5862 36.2798 15.1003C37.2052 14.1748 38.1349 13.2452 39.0603 12.3197C39.1956 12.1845 39.3266 12.0535 39.4618 11.9183C39.9308 11.4492 39.9646 10.5872 39.4618 10.1266C38.9631 9.67019 38.1772 9.63216 37.6743 10.1308Z" fill="#1663C7"/>
<path d="M37.6743 10.1308C36.7489 11.0562 35.8192 11.9858 34.8938 12.9113C34.7585 13.0465 34.6275 13.1775 34.4923 13.3127C35.0882 13.3127 35.6882 13.3127 36.284 13.3127C35.3206 12.3493 34.3529 11.3816 33.3894 10.4181C33.2542 10.2829 33.1232 10.1519 32.988 10.0167C32.988 10.6125 32.988 11.2125 32.988 11.8084C33.9303 10.866 34.8726 9.92369 35.8192 8.97713C35.9079 8.88839 35.9967 8.79965 36.0854 8.71091C36.1066 8.68978 36.1361 8.66865 36.153 8.6433C36.153 8.63907 36.1657 8.63484 36.1657 8.63062C36.1615 8.68978 35.8741 8.80387 36.1108 8.694C36.0094 8.73626 35.9079 8.77852 35.8065 8.82078C35.8657 8.79965 35.9164 8.78697 35.9798 8.77852C35.8657 8.79542 35.7558 8.8081 35.6417 8.825C35.6798 8.82078 35.722 8.82078 35.76 8.825C35.6459 8.8081 35.5361 8.79542 35.422 8.77852C35.4896 8.7912 35.5488 8.80387 35.6121 8.82923C35.5107 8.78697 35.4093 8.74471 35.3079 8.70246C35.5276 8.81655 35.76 8.90952 36.0136 8.90952C35.8023 8.85036 35.5868 8.79542 35.3755 8.73626C35.5783 8.87148 35.1177 8.50385 35.2699 8.66442C35.3206 8.71936 35.3797 8.77429 35.4347 8.82923C35.6333 9.02784 35.8277 9.22222 36.0263 9.42083C36.4826 9.87721 36.939 10.3336 37.3954 10.79C37.4672 10.8618 37.5349 10.9294 37.6067 11.0013C37.6236 11.0182 37.6405 11.0393 37.6574 11.052L37.6659 11.0604C37.6912 11.0858 37.6701 11.0562 37.6025 10.9759C37.4715 10.7984 37.5729 10.9421 37.594 10.9928C37.5518 10.8914 37.5095 10.79 37.4672 10.6885C37.4884 10.7435 37.501 10.79 37.5095 10.8491C37.4926 10.735 37.4799 10.6252 37.463 10.5111C37.4672 10.566 37.4672 10.6167 37.463 10.6759C37.4799 10.5618 37.4926 10.4519 37.5095 10.3378C37.501 10.3927 37.4841 10.4435 37.4672 10.4984C37.5095 10.397 37.5518 10.2956 37.594 10.1941C37.5475 10.3167 37.4546 10.3758 37.6743 10.1308C37.2264 10.6209 37.1545 11.445 37.6743 11.9225C38.1603 12.3704 38.9927 12.4465 39.466 11.9225C40.1759 11.1449 40.1844 10.0124 39.4449 9.24757C39.2801 9.07432 39.1068 8.90952 38.9378 8.74049C38.3969 8.19959 37.8518 7.65447 37.3109 7.11358C36.9475 6.75017 36.5925 6.37408 36.0263 6.37408C36.2376 6.43324 36.4531 6.48817 36.6644 6.54733C35.8615 6.07828 34.9276 6.28534 34.2937 6.91497C34.0698 7.13894 33.8458 7.3629 33.6218 7.58686C32.9711 8.23763 32.3203 8.88839 31.6695 9.53915C31.5132 9.6955 31.3526 9.85608 31.1963 10.0124C30.7103 10.4984 30.7103 11.3182 31.1963 11.8041C32.1555 12.7634 33.1147 13.7226 34.0698 14.6776C34.2092 14.8171 34.3487 14.9565 34.4881 15.096C34.9741 15.5819 35.7939 15.5819 36.2798 15.096C37.2052 14.1706 38.1349 13.2409 39.0603 12.3155C39.1956 12.1802 39.3266 12.0492 39.4618 11.914C39.9308 11.445 39.9646 10.5829 39.4618 10.1223C38.9631 9.67015 38.1772 9.63212 37.6743 10.1308Z" fill="#1663C7"/>
<path d="M17.1921 24.2827C17.1879 24.2954 17.1837 24.3123 17.1752 24.3249C17.1203 24.494 17.1161 24.663 17.1541 24.832C17.1626 25.0011 17.2133 25.1574 17.3062 25.3053C17.3865 25.4532 17.4964 25.5715 17.6316 25.6603C17.7542 25.7744 17.8978 25.8462 18.0626 25.8885C18.1767 25.9054 18.2866 25.918 18.4007 25.935C18.6289 25.935 18.8444 25.8758 19.0388 25.7617C19.1233 25.6941 19.2078 25.6307 19.2965 25.5631C19.4529 25.4067 19.5628 25.2166 19.6219 25.0053C19.6262 24.9926 19.6304 24.9757 19.6388 24.963C19.6938 24.794 19.698 24.625 19.66 24.4559C19.6515 24.2869 19.6008 24.1306 19.5078 23.9827C19.4275 23.8348 19.3177 23.7164 19.1824 23.6277C19.0599 23.5136 18.9162 23.4418 18.7514 23.3995C18.6373 23.3826 18.5275 23.3699 18.4134 23.353C18.1852 23.353 17.9697 23.4122 17.7753 23.5263C17.6908 23.5939 17.6063 23.6573 17.5175 23.7249C17.3612 23.8812 17.2513 24.0672 17.1921 24.2827Z" fill="#1663C7"/>
<path d="M19.5078 25.2588C19.5162 25.2419 19.5247 25.225 19.5331 25.2123C19.4655 25.2969 19.4021 25.3814 19.3345 25.4701C19.3388 25.4659 19.3388 25.4659 19.343 25.4617C18.7472 25.4617 18.1471 25.4617 17.5513 25.4617C17.6654 25.5842 17.8006 25.6729 17.9612 25.7237C18.1133 25.8039 18.2739 25.8377 18.4514 25.8335C18.6246 25.842 18.7894 25.8039 18.9415 25.7237C19.0979 25.6729 19.2331 25.5842 19.3514 25.4617C19.419 25.3771 19.4824 25.2926 19.55 25.2039C19.6641 25.0053 19.7233 24.794 19.7233 24.5658C19.7064 24.4517 19.6937 24.3418 19.6768 24.2277C19.6177 24.0122 19.5078 23.8263 19.3514 23.6699C19.2373 23.5474 19.1021 23.4587 18.9415 23.408C18.7894 23.3277 18.6288 23.2939 18.4514 23.2981C18.3373 23.315 18.2274 23.3277 18.1133 23.3446C17.8978 23.4037 17.7119 23.5136 17.5555 23.6699C17.4752 23.7545 17.4034 23.8474 17.3442 23.9446C17.3358 23.9573 17.3315 23.9657 17.3273 23.9784C17.2343 24.1221 17.1836 24.2827 17.1752 24.4517C17.1372 24.6207 17.1456 24.7898 17.1963 24.9588C17.2343 25.1236 17.3104 25.2673 17.4245 25.3898C17.5132 25.5293 17.6316 25.6349 17.7795 25.7152C17.8809 25.7575 17.9823 25.7997 18.0837 25.842C18.3077 25.9011 18.5316 25.9011 18.7598 25.842C18.8613 25.7997 18.9627 25.7575 19.0641 25.7152C19.2416 25.6011 19.3937 25.449 19.5078 25.2588Z" fill="#1663C7"/>
<path d="M30.8455 4.01632C30.8455 6.03622 30.8455 8.06035 30.8455 10.0802C30.8455 10.3634 30.8455 10.6507 30.8455 10.9338C31.5681 10.6338 32.2865 10.338 33.0091 10.038C33.0006 10.0295 32.9964 10.0253 32.9879 10.0169C32.502 9.5309 31.6822 9.5309 31.1962 10.0169C30.2201 10.993 29.2439 11.9691 28.2678 12.9453C27.6086 13.6045 26.9536 14.2595 26.2944 14.9187C25.09 16.123 23.8899 17.3231 22.6856 18.5275C22.0517 19.1613 21.4179 19.7952 20.7882 20.4248C19.7191 21.4939 18.6289 22.5377 17.5851 23.6279C17.3274 23.8942 17.1414 24.2364 17.1414 24.6168C17.1583 24.5027 17.171 24.3928 17.1879 24.2787C17.0612 24.6337 17.0527 25.0393 17.0273 25.4112C16.9978 25.8084 16.9893 26.2099 16.9809 26.6071C16.9724 27.0973 16.9682 27.5874 16.9724 28.0776C16.9766 28.7664 17.5471 29.3411 18.2401 29.3453C18.8529 29.3496 19.4656 29.3369 20.0741 29.3158C20.484 29.3031 20.8897 29.282 21.2953 29.2355C21.8024 29.1763 22.2419 29.1129 22.6391 28.7495C23.1969 28.2382 23.7167 27.672 24.2533 27.1353C25.3943 25.9943 26.5352 24.8534 27.6762 23.7124C28.834 22.5546 29.9961 21.3925 31.154 20.2347C31.7625 19.6262 32.3921 19.0303 32.9837 18.4049C32.9922 18.3965 33.0006 18.388 33.0091 18.3796C32.2865 18.0796 31.5681 17.7838 30.8455 17.4837C30.8455 18.05 30.8455 18.612 30.8455 19.1782C30.8455 20.5305 30.8455 21.8827 30.8455 23.2349C30.8455 24.8618 30.8455 26.4888 30.8455 28.1114C30.8455 29.4932 30.8455 30.8751 30.8455 32.2569C30.8455 32.895 30.8497 33.533 30.8455 34.1754C30.8455 34.2937 30.837 34.4162 30.8244 34.5345C30.8413 34.4205 30.8539 34.3106 30.8708 34.1965C30.837 34.4416 30.7736 34.674 30.6807 34.9022C30.7229 34.8008 30.7652 34.6993 30.8075 34.5979C30.7398 34.7501 30.668 34.898 30.575 35.0374C30.5497 35.0754 30.5201 35.1135 30.499 35.1515C30.4398 35.2571 30.7187 34.8937 30.5793 35.0459C30.5243 35.105 30.4694 35.1684 30.4145 35.2276C30.3553 35.2867 30.2919 35.3374 30.2328 35.3924C30.1018 35.5107 30.3595 35.291 30.3595 35.2952C30.3638 35.3036 30.2539 35.367 30.2454 35.3755C30.0975 35.4727 29.9454 35.5529 29.7848 35.6248C29.8862 35.5825 29.9877 35.5403 30.0891 35.498C29.8609 35.591 29.6242 35.6544 29.3834 35.6882C29.4975 35.6713 29.6073 35.6586 29.7214 35.6417C29.4045 35.6797 29.0791 35.6628 28.758 35.6628C28.1495 35.6628 27.5452 35.6628 26.9367 35.6628C24.8999 35.6628 22.8631 35.6628 20.8221 35.6628C18.35 35.6628 15.8822 35.6628 13.4101 35.6628C11.2846 35.6628 9.15904 35.6628 7.03349 35.6628C6.03622 35.6628 5.03472 35.6713 4.03745 35.6628C3.91068 35.6628 3.78813 35.6544 3.66559 35.6417C3.77968 35.6586 3.88955 35.6713 4.00364 35.6882C3.75855 35.6544 3.52614 35.591 3.29795 35.498C3.39936 35.5403 3.50078 35.5825 3.6022 35.6248C3.45007 35.5614 3.30217 35.4853 3.16272 35.3924C3.12469 35.367 3.08666 35.3374 3.04863 35.3163C2.94299 35.2571 3.3064 35.536 3.15427 35.3966C3.09511 35.3417 3.03173 35.2867 2.97257 35.2318C2.91341 35.1726 2.8627 35.1092 2.80776 35.0501C2.68944 34.9191 2.90918 35.1769 2.90495 35.1769C2.8965 35.1811 2.83312 35.0712 2.82467 35.0628C2.72747 34.9149 2.64719 34.7627 2.57535 34.6022C2.61761 34.7036 2.65986 34.805 2.70212 34.9064C2.60915 34.6782 2.54577 34.4416 2.51196 34.2007C2.52886 34.3148 2.54154 34.4247 2.55844 34.5388C2.51619 34.1796 2.53732 33.8119 2.53732 33.4485C2.53732 32.7259 2.53732 32.0033 2.53732 31.2807C2.53732 30.1989 2.53732 29.1129 2.53732 28.0311C2.53732 26.6958 2.53732 25.3605 2.53732 24.0252C2.53732 22.5673 2.53732 21.1094 2.53732 19.6473C2.53732 18.1683 2.53732 16.6893 2.53732 15.2061C2.53732 13.8369 2.53732 12.4636 2.53732 11.0944C2.53732 9.94079 2.53732 8.78717 2.53732 7.63355C2.53732 6.80953 2.53732 5.98551 2.53732 5.16149C2.53732 4.78963 2.53732 4.41777 2.53732 4.0459C2.53732 3.91913 2.54577 3.79236 2.55844 3.66559C2.54154 3.77968 2.52886 3.88955 2.51196 4.00364C2.54577 3.75855 2.60915 3.52614 2.70212 3.29795C2.65986 3.39936 2.61761 3.50078 2.57535 3.6022C2.64296 3.45007 2.7148 3.30217 2.80776 3.16272C2.83312 3.12469 2.8627 3.08666 2.88383 3.04863C2.94299 2.94299 2.66409 3.3064 2.80354 3.15427C2.85847 3.09511 2.91341 3.03173 2.96834 2.97257C3.0275 2.91341 3.09089 2.8627 3.15005 2.80776C3.28104 2.68944 3.02328 2.90918 3.02328 2.90495C3.01905 2.8965 3.12892 2.83312 3.13737 2.82467C3.28527 2.72747 3.4374 2.64719 3.59797 2.57535C3.49656 2.61761 3.39514 2.65986 3.29372 2.70212C3.52191 2.60915 3.75855 2.54577 3.99942 2.51196C3.88532 2.52886 3.77545 2.54154 3.66136 2.55844C3.97829 2.52041 4.30367 2.53732 4.62483 2.53732C5.23333 2.53732 5.83761 2.53732 6.44612 2.53732C8.48292 2.53732 10.5197 2.53732 12.5607 2.53732C15.0328 2.53732 17.5006 2.53732 19.9727 2.53732C22.0982 2.53732 24.2238 2.53732 26.3493 2.53732C27.3466 2.53732 28.3481 2.52886 29.3453 2.53732C29.4721 2.53732 29.5947 2.54577 29.7172 2.55844C29.6031 2.54154 29.4932 2.52886 29.3792 2.51196C29.6242 2.54577 29.8567 2.60915 30.0849 2.70212C29.9834 2.65986 29.882 2.61761 29.7806 2.57535C29.9327 2.63873 30.0806 2.7148 30.2201 2.80776C30.2581 2.83312 30.2961 2.8627 30.3342 2.88383C30.4398 2.94299 30.0764 2.66409 30.2285 2.80354C30.2877 2.85847 30.3511 2.91341 30.4102 2.96834C30.4694 3.0275 30.5201 3.09089 30.575 3.15005C30.6934 3.28104 30.4736 3.02328 30.4778 3.02328C30.4863 3.01905 30.5497 3.12892 30.5581 3.13737C30.6553 3.28527 30.7356 3.4374 30.8075 3.59797C30.7652 3.49656 30.7229 3.39514 30.6807 3.29372C30.7736 3.52191 30.837 3.75855 30.8708 3.99942C30.8539 3.88532 30.8413 3.77546 30.8244 3.66136C30.837 3.78391 30.8455 3.898 30.8455 4.01632C30.8539 4.67976 31.4244 5.31362 32.1132 5.28404C32.7935 5.25446 33.3894 4.72624 33.3809 4.01632C33.3682 2.87115 32.8781 1.70907 31.9822 0.978022C31.23 0.361065 30.3384 0.0103296 29.358 0.0018781C29.0538 -0.00234763 28.7537 0.0018781 28.4495 0.0018781C26.7169 0.0018781 24.9844 0.0018781 23.2518 0.0018781C20.7333 0.0018781 18.2148 0.0018781 15.7005 0.0018781C13.3087 0.0018781 10.9127 0.0018781 8.52095 0.0018781C7.11801 0.0018781 5.71084 0.0018781 4.3079 0.0018781C4.21493 0.0018781 4.11774 0.0018781 4.02477 0.0018781C3.0444 0.0103296 2.15277 0.361065 1.40059 0.978022C0.441354 1.75978 0.0018781 2.96834 0.0018781 4.18112C0.0018781 5.33052 0.0018781 6.4757 0.0018781 7.6251C0.0018781 9.8098 0.0018781 11.9945 0.0018781 14.1792C0.0018781 16.7527 0.0018781 19.3261 0.0018781 21.8996C0.0018781 24.2533 0.0018781 26.6113 0.0018781 28.965C0.0018781 30.4694 0.0018781 31.9738 0.0018781 33.4781C0.0018781 33.7148 -0.00234763 33.9514 0.0018781 34.188C0.0103296 35.2402 0.420225 36.2586 1.15973 37.0108C1.90768 37.7757 2.95566 38.1982 4.02055 38.2067C4.98824 38.2152 5.95593 38.2067 6.92785 38.2067C9.13368 38.2067 11.3353 38.2067 13.5411 38.2067C16.1104 38.2067 18.6796 38.2067 21.2488 38.2067C23.2941 38.2067 25.3394 38.2067 27.3804 38.2067C28.758 38.2067 30.2961 38.38 31.5089 37.5897C32.5823 36.8925 33.2246 35.8023 33.364 34.5388C33.3851 34.3486 33.3851 34.1627 33.3851 33.9725C33.3851 33.3302 33.3851 32.6879 33.3851 32.0456C33.3851 29.675 33.3851 27.3043 33.3851 24.9337C33.3851 22.7955 33.3851 20.6572 33.3851 18.5148C33.3851 18.1725 33.3851 17.8302 33.3851 17.4879C33.3851 16.9809 33.0682 16.5245 32.6076 16.3301C32.1428 16.1357 31.585 16.2287 31.2216 16.5921C30.8708 16.9428 30.5243 17.2893 30.1736 17.6401C29.3369 18.4768 28.5002 19.3135 27.6677 20.1459C26.662 21.1517 25.6521 22.1616 24.6463 23.1673C23.7843 24.0294 22.9222 24.8914 22.0602 25.7535C21.7813 26.0324 21.5066 26.307 21.2277 26.5859C21.1052 26.7085 20.9615 26.8226 20.8559 26.9578C20.7925 27.0381 21.2108 26.7254 21.0587 26.7972C21.1601 26.755 21.2615 26.7127 21.3629 26.6705C21.2488 26.7169 21.1179 26.7338 20.9953 26.7507C21.1094 26.7338 21.2193 26.7212 21.3334 26.7043C20.315 26.8353 19.2712 26.8226 18.2444 26.8184C18.6669 27.2409 19.0895 27.6635 19.5121 28.0861C19.5036 27.0465 19.4867 25.9859 19.6135 24.9548C19.5966 25.0689 19.5839 25.1788 19.567 25.2929C19.5966 25.0689 19.6853 24.8492 19.6853 24.6252C19.6262 24.8365 19.5712 25.052 19.5121 25.2633C19.3346 25.5549 19.3092 25.5042 19.4233 25.3901C19.4909 25.3225 19.5586 25.2548 19.6219 25.1915C19.8544 24.959 20.0868 24.7266 20.3234 24.49C20.9657 23.8477 21.608 23.2054 22.2461 22.5673C22.9011 21.9123 23.5519 21.2615 24.2069 20.6065C25.4027 19.4107 26.6029 18.2105 27.7987 17.0147C28.4157 16.3977 29.0326 15.7808 29.6496 15.1638C30.7398 14.0736 31.8343 12.9791 32.9245 11.8889C32.9499 11.8635 32.971 11.8424 32.9964 11.817C32.4006 11.817 31.8005 11.817 31.2047 11.817C31.2131 11.8255 31.2173 11.8297 31.2258 11.8381C31.5892 12.2016 32.147 12.2945 32.6118 12.1001C33.0724 11.9058 33.3894 11.4494 33.3894 10.9423C33.3894 8.92239 33.3894 6.89827 33.3894 4.87837C33.3894 4.59525 33.3894 4.3079 33.3894 4.02477C33.3894 3.36133 32.8062 2.72747 32.1217 2.75705C31.4286 2.77818 30.8455 3.3064 30.8455 4.01632Z" fill="#1663C7"/>
<path d="M7.18559 9.67881C7.81522 9.67881 8.44063 9.67881 9.07026 9.67881C10.5788 9.67881 12.0874 9.67881 13.6002 9.67881C15.4342 9.67881 17.2682 9.67881 19.1021 9.67881C20.6741 9.67881 22.2503 9.67881 23.8223 9.67881C24.5914 9.67881 25.3647 9.69572 26.1338 9.67881C26.1422 9.67881 26.1549 9.67881 26.1633 9.67881C26.8268 9.67881 27.4606 9.09566 27.4311 8.4111C27.4015 7.7223 26.8733 7.14338 26.1633 7.14338C25.5337 7.14338 24.9083 7.14338 24.2787 7.14338C22.7701 7.14338 21.2615 7.14338 19.7487 7.14338C17.9147 7.14338 16.0807 7.14338 14.2468 7.14338C12.6748 7.14338 11.0986 7.14338 9.52664 7.14338C8.75756 7.14338 7.98425 7.12647 7.21517 7.14338C7.20671 7.14338 7.19404 7.14338 7.18559 7.14338C6.52215 7.14338 5.88829 7.72653 5.91787 8.4111C5.94745 9.09989 6.47566 9.67881 7.18559 9.67881Z" fill="#1663C7"/>
<path d="M21.0967 14.2722C19.5247 14.2722 17.957 14.2722 16.385 14.2722C13.8876 14.2722 11.3902 14.2722 8.88855 14.2722C8.32231 14.2722 7.75183 14.2722 7.18559 14.2722C6.52215 14.2722 5.88829 14.8554 5.91787 15.5399C5.94745 16.2287 6.47566 16.8077 7.18559 16.8077C8.75756 16.8077 10.3253 16.8077 11.8973 16.8077C14.3947 16.8077 16.8921 16.8077 19.3937 16.8077C19.96 16.8077 20.5304 16.8077 21.0967 16.8077C21.7601 16.8077 22.394 16.2245 22.3644 15.5399C22.3306 14.8511 21.8066 14.2722 21.0967 14.2722Z" fill="#1663C7"/>
<path d="M13.4904 21.3969C11.648 21.3969 9.80554 21.3969 7.95889 21.3969C7.70112 21.3969 7.44335 21.3969 7.18559 21.3969C6.52215 21.3969 5.88829 21.98 5.91787 22.6646C5.94745 23.3534 6.47566 23.9323 7.18559 23.9323C9.028 23.9323 10.8704 23.9323 12.7171 23.9323C12.9748 23.9323 13.2326 23.9323 13.4904 23.9323C14.1538 23.9323 14.7877 23.3491 14.7581 22.6646C14.7243 21.98 14.2003 21.3969 13.4904 21.3969Z" fill="#1663C7"/>
<path d="M13.0678 28.5256C11.3522 28.5256 9.63228 28.5256 7.91664 28.5256C7.67154 28.5256 7.43068 28.5256 7.18559 28.5256C6.52215 28.5256 5.88829 29.1088 5.91787 29.7934C5.94745 30.4821 6.47566 31.0611 7.18559 31.0611C8.90123 31.0611 10.6211 31.0611 12.3368 31.0611C12.5818 31.0611 12.8227 31.0611 13.0678 31.0611C13.7312 31.0611 14.3651 30.4779 14.3355 29.7934C14.3017 29.1046 13.7777 28.5256 13.0678 28.5256Z" fill="#1663C7"/>
</svg>
