<svg width="76" height="80" viewBox="0 0 76 80" fill="none" xmlns="http://www.w3.org/2000/svg">
<path d="M3 26C3 14.9543 11.9543 6 23 6H73V56C73 67.0457 64.0457 76 53 76H3V26Z" fill="#035FD7" fill-opacity="0.1"/>
<path d="M17.2999 57.7998H33.5999" stroke="#1663C7" stroke-width="2" stroke-miterlimit="10" stroke-linecap="round" stroke-linejoin="round"/>
<path d="M38.9 68.6998V34.4998C38.9 31.5998 41.2 29.2998 44.1 29.2998H64.2V68.5998" stroke="#1663C7" stroke-width="2" stroke-miterlimit="10" stroke-linecap="round" stroke-linejoin="round"/>
<path d="M38.3 68.6998V34.4998C38.3 31.5998 36 29.2998 33.1 29.2998H13V68.5998" stroke="#1663C7" stroke-width="2" stroke-miterlimit="10" stroke-linecap="round" stroke-linejoin="round"/>
<path d="M17.2999 36.7998H33.5999" stroke="#1663C7" stroke-width="2" stroke-miterlimit="10" stroke-linecap="round" stroke-linejoin="round"/>
<path d="M17.2999 41.7998H33.5999" stroke="#1663C7" stroke-width="2" stroke-miterlimit="10" stroke-linecap="round" stroke-linejoin="round"/>
<path d="M17.2999 45.7998H33.5999" stroke="#1663C7" stroke-width="2" stroke-miterlimit="10" stroke-linecap="round" stroke-linejoin="round"/>
<path d="M17.2999 49.7998H33.5999" stroke="#1663C7" stroke-width="2" stroke-miterlimit="10" stroke-linecap="round" stroke-linejoin="round"/>
<path d="M17.2999 53.7998H33.5999" stroke="#1663C7" stroke-width="2" stroke-miterlimit="10" stroke-linecap="round" stroke-linejoin="round"/>
<path d="M43.2999 36.7998H59.5999" stroke="#1663C7" stroke-width="2" stroke-miterlimit="10" stroke-linecap="round" stroke-linejoin="round"/>
<path d="M43.2999 41.7998H59.5999" stroke="#1663C7" stroke-width="2" stroke-miterlimit="10" stroke-linecap="round" stroke-linejoin="round"/>
<path d="M43.2999 45.7998H59.5999" stroke="#1663C7" stroke-width="2" stroke-miterlimit="10" stroke-linecap="round" stroke-linejoin="round"/>
<path d="M43.2999 49.7998H59.5999" stroke="#1663C7" stroke-width="2" stroke-miterlimit="10" stroke-linecap="round" stroke-linejoin="round"/>
<path d="M43.2999 53.7998H59.5999" stroke="#1663C7" stroke-width="2" stroke-miterlimit="10" stroke-linecap="round" stroke-linejoin="round"/>
<path d="M43.2999 57.7998H59.5999" stroke="#1663C7" stroke-width="2" stroke-miterlimit="10" stroke-linecap="round" stroke-linejoin="round"/>
<path d="M37.5 18.5999L20.6 10.7999L38.9 1.8999L57.3 10.8999L37.5 18.5999Z" stroke="#1663C7" stroke-width="2" stroke-miterlimit="10" stroke-linecap="round" stroke-linejoin="round"/>
<path d="M50.4 13.7V19.5C50.4 22.1 48.2 24.2999 45.6 24.2999H33.4C30.8 24.2999 28.6 22.1 28.6 19.5V14.3999" stroke="#1663C7" stroke-width="2" stroke-miterlimit="10" stroke-linecap="round" stroke-linejoin="round"/>
<path d="M38.2 9.29985C38.5314 9.29985 38.8 9.25507 38.8 9.19984C38.8 9.14462 38.5314 9.09985 38.2 9.09985C37.8686 9.09985 37.6 9.14462 37.6 9.19984C37.6 9.25507 37.8686 9.29985 38.2 9.29985Z" stroke="#1663C7" stroke-width="2.9086" stroke-miterlimit="10" stroke-linecap="round" stroke-linejoin="round"/>
<path d="M37.6 9.39985C37.6 8.79985 34 9.29986 30.8 10.2999C30.3 10.3999 26.4 12.1999 25.4 13.8999C24.9 14.8999 24.6 15.7999 24.4 16.0999C21.6 23.0999 20.8 23.7998 21.5 24.7998C22.6 26.3998 26.9 26.2999 27.7 25.0999C28 24.4999 27.5 23.8999 27.2 22.1999C27 21.8999 26.5 19.3999 26.9 17.6999C27.6 14.1999 31.6 11.9999 32.8 11.3999C35.5 9.89985 37.6 9.89985 37.6 9.39985Z" fill="#1663C7" stroke="#1663C7" stroke-width="1.5388" stroke-miterlimit="10" stroke-linecap="round" stroke-linejoin="round"/>
</svg>
