<svg width="40" height="40" viewBox="0 0 40 40" fill="none" xmlns="http://www.w3.org/2000/svg">
<path d="M13.8738 22.9121C12.9293 22.0112 12.306 20.921 12.1864 19.8787C12.0899 18.8683 12.3962 17.8128 13.8236 16.534C14.2961 16.1107 14.9138 15.5891 15.2197 14.6759C15.5256 13.7627 15.3206 12.7088 14.7577 11.6627C13.1885 9.71795 11.7538 7.51714 10.3382 5.87724C9.36702 4.90597 7.96359 4.60858 6.92328 4.93311C5.941 5.23667 5.18362 5.90709 4.55289 6.52006C0.997169 10.0758 -0.494278 13.7338 0.143495 17.4179C0.781267 21.102 3.31547 24.5674 7.12419 28.3761C8.63056 29.8825 10.2869 31.5388 11.624 32.8758C15.4327 36.6846 18.8979 39.2188 22.5821 39.8565C26.2661 40.4943 29.9242 39.0029 33.4799 35.4471C34.0929 34.8164 34.7634 34.059 35.0669 33.0767C35.3915 32.0364 35.0942 30.633 34.1227 29.6617C32.4828 28.2462 30.2821 26.8115 28.3373 25.2423C27.2912 24.6795 26.2373 24.4744 25.3241 24.7803C24.411 25.0862 23.8893 25.7039 23.466 26.1764C22.1872 27.6038 21.1317 27.91 20.1213 27.8136C19.0791 27.694 17.9886 27.0709 17.088 26.1262L13.8738 22.9121ZM8.37969 7.77558L12.3672 12.9885C12.6749 13.5837 12.6471 13.7562 12.6283 13.8121C12.6088 13.8709 12.444 14.1024 12.0056 14.4951C10.1035 16.1992 9.29472 18.2566 9.47449 20.1399C9.65331 22.0134 10.6796 23.608 11.9454 24.8405C13.1196 26.0148 14.0182 26.9134 15.1595 28.0547C16.3919 29.3205 17.9866 30.3467 19.8601 30.5255C21.7434 30.7053 23.8008 29.8966 25.5049 27.9944C25.8976 27.556 26.1291 27.3914 26.1879 27.3716C26.2439 27.3529 26.4163 27.3251 27.0115 27.6328L32.2244 31.6203C32.5965 31.9989 32.5452 32.0076 32.4655 32.2632C32.3831 32.5274 32.0215 33.0341 31.5515 33.5187C29.4689 35.6092 26.0204 37.9566 23.0542 37.1747C20.3246 36.7022 17.1947 34.5897 13.5524 30.9474C12.046 29.441 10.3897 27.7847 9.05263 26.4476C5.41026 22.8053 3.29777 19.6754 2.82527 16.9459C2.0434 13.9796 4.39078 10.5311 6.48133 8.44854C6.96605 7.97878 7.47265 7.61696 7.73688 7.53453C7.94947 7.46466 8.12964 7.47368 8.37969 7.77558Z" fill="#1663C7"/>
<path d="M33.1802 16.3653C33.9333 16.3653 34.5438 15.7548 34.5438 15.0017C34.5438 14.2486 33.9333 13.638 33.1802 13.638H28.2938L39.6006 2.33121C40.1332 1.79866 40.1332 0.931937 39.6006 0.399392C39.0681 -0.133108 38.2013 -0.133153 37.6688 0.399392L26.362 11.7062V6.81984C26.362 6.06671 25.7514 5.45621 24.9983 5.45621C24.2452 5.45621 23.6347 6.06671 23.6347 6.81984V15.0017C23.6347 15.7548 24.2452 16.3653 24.9983 16.3653H33.1802Z" fill="#1663C7"/>
</svg>
