<svg width="50" height="33" viewBox="0 0 50 33" fill="none" xmlns="http://www.w3.org/2000/svg">
<path d="M22.775 31.9127C22.3483 31.9127 21.9216 31.646 21.7616 31.166C21.6016 30.5793 21.8683 29.9926 22.455 29.8325L39.7362 24.2321C40.2696 24.0721 40.9096 24.3388 41.0697 24.9255C41.2297 25.5122 40.963 26.0989 40.3763 26.2589L23.095 31.8594C22.9883 31.9127 22.8817 31.9127 22.775 31.9127Z" fill="#1663C7"/>
<path d="M40.4828 26.2057C40.0561 26.2057 39.6294 25.939 39.4694 25.459C39.3094 24.8723 39.5761 24.2856 40.1628 24.1255C42.9897 23.2188 45.3365 21.2453 46.67 18.5785C48.0034 15.9116 48.2701 12.8714 47.3633 10.0445C45.6566 4.7108 40.4295 1.51057 34.9891 2.4173C34.2424 2.52397 33.4423 2.79066 32.5889 3.16402C30.6688 4.01742 27.1485 5.40418 25.1751 5.51086C24.855 5.51086 24.5884 5.51086 24.375 5.45752H24.3217C23.7883 5.40418 23.2549 5.5642 22.8282 5.99089C22.4015 6.36425 22.2415 6.95096 22.2949 7.53767C22.2949 7.75102 22.4015 7.96437 22.5082 8.17772C23.0416 8.97778 23.5749 9.08445 24.1617 9.08445C26.5085 9.24446 28.9087 9.03111 31.3622 8.39107C32.3222 8.12438 33.229 8.28439 33.869 8.81777C34.4557 9.2978 34.7758 10.0445 34.7758 10.8979C34.7758 11.4846 34.2424 11.9647 33.6557 11.9113C33.069 11.9113 32.5889 11.378 32.6423 10.7912C32.6423 10.6846 32.6423 10.4712 32.5356 10.4179C32.4289 10.3645 32.2156 10.3112 31.8956 10.3645C29.2287 11.0579 26.5618 11.2713 24.0016 11.1113C22.9882 11.0579 21.7615 10.7379 20.7481 9.24446C20.4281 8.76443 20.2147 8.17772 20.1614 7.64435C20.0547 6.41759 20.4281 5.19084 21.2814 4.33744C22.1348 3.48404 23.3083 3.05735 24.4817 3.21736H24.535C24.695 3.21736 24.855 3.2707 24.9617 3.2707C26.1351 3.21736 28.642 2.36396 31.6822 1.08387C32.7489 0.657172 33.6557 0.33715 34.6158 0.177138C41.1229 -0.889606 47.31 2.95067 49.3368 9.2978C50.4569 12.7114 50.1369 16.285 48.5368 19.4852C46.9366 22.6321 44.1631 25.0323 40.7495 26.099C40.7495 26.1524 40.6429 26.2057 40.4828 26.2057Z" fill="#1663C7"/>
<path d="M26.882 25.1389H3.52026C1.60012 25.1389 0 23.5388 0 21.6187V6.25756C0 4.33742 1.60012 2.7373 3.52026 2.7373H27.7354C28.3221 2.7373 28.8021 3.21734 28.8021 3.80405C28.8021 4.39076 28.3221 4.87079 27.7354 4.87079H3.52026C2.77354 4.87079 2.13349 5.51084 2.13349 6.25756V21.6187C2.13349 22.3654 2.77354 23.0054 3.52026 23.0054H26.882C27.6287 23.0054 28.2687 22.3654 28.2687 21.6187V10.2045C28.2687 9.61781 28.7488 9.13777 29.3355 9.13777C29.9222 9.13777 30.4022 9.61781 30.4022 10.2045V21.6187C30.4022 23.5388 28.8021 25.1389 26.882 25.1389Z" fill="#1663C7"/>
<path d="M24.5351 17.1384H5.33371C4.747 17.1384 4.26697 16.6583 4.26697 16.0716C4.26697 15.4849 4.747 15.0049 5.33371 15.0049H24.5351C25.1218 15.0049 25.6019 15.4849 25.6019 16.0716C25.6019 16.6583 25.1218 17.1384 24.5351 17.1384Z" fill="#1663C7"/>
<path d="M12.8009 20.8719H5.33371C4.747 20.8719 4.26697 20.3919 4.26697 19.8051C4.26697 19.2184 4.747 18.7384 5.33371 18.7384H12.8009C13.3876 18.7384 13.8677 19.2184 13.8677 19.8051C13.8677 20.3919 13.3876 20.8719 12.8009 20.8719Z" fill="#1663C7"/>
<path d="M20.2682 20.8719H16.5346C15.9479 20.8719 15.4678 20.3919 15.4678 19.8051C15.4678 19.2184 15.9479 18.7384 16.5346 18.7384H20.2682C20.8549 18.7384 21.3349 19.2184 21.3349 19.8051C21.3349 20.3919 20.8549 20.8719 20.2682 20.8719Z" fill="#1663C7"/>
<path d="M9.60069 13.4047H5.33371C4.747 13.4047 4.26697 12.9247 4.26697 12.338V8.07102C4.26697 7.48431 4.747 7.00427 5.33371 7.00427H9.60069C10.1874 7.00427 10.6674 7.48431 10.6674 8.07102V12.338C10.6674 12.9247 10.1874 13.4047 9.60069 13.4047ZM6.40046 11.2712H8.53394V9.13776H6.40046V11.2712Z" fill="#1663C7"/>
<path d="M22.0816 32.0193C20.7481 32.0193 19.468 31.1659 19.0413 29.8325C18.7746 29.0324 18.828 28.1257 19.2547 27.379C19.628 26.6323 20.3214 26.0455 21.1215 25.7789L28.7487 23.3253C30.4022 22.792 32.2156 23.6987 32.8023 25.4055C33.069 26.2056 33.0157 27.1123 32.589 27.859C32.2156 28.6057 31.5222 29.1924 30.7222 29.4591L23.095 31.9126C22.7749 31.966 22.4016 32.0193 22.0816 32.0193ZM29.7088 25.2988C29.6021 25.2988 29.4954 25.2988 29.3888 25.3522L21.7615 27.8057C21.4948 27.9124 21.2815 28.0724 21.1215 28.339C21.0148 28.6057 20.9615 28.8724 21.0681 29.1391C21.2282 29.6725 21.8682 29.9925 22.4016 29.8325L30.0288 27.379C30.5622 27.219 30.8822 26.5789 30.7222 26.0455C30.5622 25.6188 30.1355 25.2988 29.7088 25.2988Z" fill="#1663C7"/>
<path d="M18.7747 28.6593C17.4413 28.6593 16.1612 27.8059 15.7345 26.4191C15.4145 25.3523 15.6278 24.2323 16.3212 23.3789C16.6945 22.9522 17.3879 22.8455 17.8146 23.2189C18.2413 23.5922 18.348 24.2856 17.9746 24.7123C17.7613 24.979 17.6546 25.3523 17.7613 25.7257C17.868 25.9924 18.028 26.2057 18.2947 26.3658C18.5613 26.4724 18.828 26.5258 19.0947 26.4191L28.7488 23.2722C29.3355 23.1122 29.9222 23.3789 30.0822 23.9656C30.2422 24.5523 29.9755 25.139 29.3888 25.299L19.7348 28.4992C19.4147 28.6059 19.0947 28.6593 18.7747 28.6593Z" fill="#1663C7"/>
</svg>
