<svg width="76" height="80" viewBox="0 0 76 80" fill="none" xmlns="http://www.w3.org/2000/svg">
<path d="M3 26C3 14.9543 11.9543 6 23 6H73V56C73 67.0457 64.0457 76 53 76H3V26Z" fill="#035FD7" fill-opacity="0.1"/>
<path d="M58.7143 45.1336V27.4643C58.7143 26.0908 58.1687 24.7737 57.1975 23.8025C56.2263 22.8313 54.9092 22.2857 53.5357 22.2857H46.2857C46.2857 20.0882 45.4128 17.9807 43.8589 16.4268C42.305 14.873 40.1975 14 38 14C35.8025 14 33.695 14.873 32.1411 16.4268C30.5872 17.9807 29.7143 20.0882 29.7143 22.2857H22.4643C21.0908 22.2857 19.7737 22.8313 18.8025 23.8025C17.8313 24.7737 17.2857 26.0908 17.2857 27.4643V45.1336C15.0078 45.3883 12.9036 46.4733 11.3751 48.1813C9.84665 49.8894 9.00109 52.1008 9 54.3929V62.6786C9 62.9533 9.10912 63.2167 9.30335 63.4109C9.49759 63.6052 9.76103 63.7143 10.0357 63.7143H17.2857V66.8214C17.2857 67.0961 17.3948 67.3596 17.5891 67.5538C17.7833 67.748 18.0467 67.8571 18.3214 67.8571H57.6786C57.9533 67.8571 58.2167 67.748 58.4109 67.5538C58.6052 67.3596 58.7143 67.0961 58.7143 66.8214V63.7143H65.9643C66.239 63.7143 66.5024 63.6052 66.6966 63.4109C66.8909 63.2167 67 62.9533 67 62.6786V54.3929C66.9989 52.1008 66.1534 49.8894 64.6249 48.1813C63.0964 46.4733 60.9922 45.3883 58.7143 45.1336ZM17.2857 61.6429H11.0714V55.4286H17.2857V61.6429ZM17.2857 53.3571H11.1543C11.377 51.809 12.0945 50.3744 13.1995 49.2675C14.3046 48.1606 15.738 47.4407 17.2857 47.2154V53.3571ZM38 16.0714C39.6481 16.0714 41.2288 16.7261 42.3942 17.8916C43.5596 19.057 44.2143 20.6376 44.2143 22.2857H31.7857C31.7857 20.6376 32.4404 19.057 33.6058 17.8916C34.7712 16.7261 36.3519 16.0714 38 16.0714ZM56.6429 46.1071V65.7857H19.3571V40.9286H34.8929V43C34.8929 43.2747 35.002 43.5381 35.1962 43.7324C35.3904 43.9266 35.6539 44.0357 35.9286 44.0357H40.0714C40.3461 44.0357 40.6096 43.9266 40.8038 43.7324C40.998 43.5381 41.1071 43.2747 41.1071 43V40.9286H56.6429V46.1071ZM39.0357 40.9286V41.9643H36.9643V40.9286H39.0357ZM36.9643 38.8571V37.8214H39.0357V38.8571H36.9643ZM56.6429 38.8571H41.1071V36.7857C41.1071 36.511 40.998 36.2476 40.8038 36.0534C40.6096 35.8591 40.3461 35.75 40.0714 35.75H35.9286C35.6539 35.75 35.3904 35.8591 35.1962 36.0534C35.002 36.2476 34.8929 36.511 34.8929 36.7857V38.8571H19.3571V30.5714H56.6429V38.8571ZM56.6429 28.5H19.3571V27.4643C19.3571 26.6402 19.6845 25.8499 20.2672 25.2672C20.8499 24.6845 21.6402 24.3571 22.4643 24.3571H53.5357C54.3598 24.3571 55.1501 24.6845 55.7328 25.2672C56.3155 25.8499 56.6429 26.6402 56.6429 27.4643V28.5ZM64.9286 61.6429H58.7143V55.4286H64.9286V61.6429ZM58.7143 53.3571V47.2154C60.262 47.4407 61.6954 48.1606 62.8005 49.2675C63.9055 50.3744 64.623 51.809 64.8457 53.3571H58.7143Z" fill="#1663C7"/>
<path d="M23.5 46.1072V60.6072C23.5 60.8819 23.6091 61.1454 23.8034 61.3396C23.9976 61.5338 24.261 61.643 24.5357 61.643H51.4643C51.739 61.643 52.0024 61.5338 52.1966 61.3396C52.3909 61.1454 52.5 60.8819 52.5 60.6072V46.1072C52.5 45.8326 52.3909 45.5691 52.1966 45.3749C52.0024 45.1807 51.739 45.0715 51.4643 45.0715H24.5357C24.261 45.0715 23.9976 45.1807 23.8034 45.3749C23.6091 45.5691 23.5 45.8326 23.5 46.1072ZM25.5714 47.143H50.4286V49.2144H25.5714V47.143ZM30.75 51.2858V55.4287H29.7143V51.2858H30.75ZM25.5714 51.2858H27.6429V56.4644C27.6429 56.7391 27.752 57.0025 27.9462 57.1968C28.1404 57.391 28.4039 57.5001 28.6786 57.5001H31.7857C32.0604 57.5001 32.3238 57.391 32.5181 57.1968C32.7123 57.0025 32.8214 56.7391 32.8214 56.4644V51.2858H50.4286V59.5715H25.5714V51.2858Z" fill="#1663C7"/>
</svg>
