<svg width="76" height="80" viewBox="0 0 76 80" fill="none" xmlns="http://www.w3.org/2000/svg">
<path d="M3 26C3 14.9543 11.9543 6 23 6H73V56C73 67.0457 64.0457 76 53 76H3V26Z" fill="#035FD7" fill-opacity="0.1"/>
<path d="M28 60H46C47.103 60 48 59.103 48 58V54C48 52.897 47.103 52 46 52H28C26.897 52 26 52.897 26 54V58C26 59.103 26.897 60 28 60ZM28 54H46L46.001 58H28V54Z" fill="#1663C7"/>
<path d="M68 24.121C68 22.4 66.6 21 64.879 21C64.045 21 63.261 21.325 62.672 21.914L59.5 25.086L58.414 24H54V28.414L55.086 29.5L53.244 31.342C52.698 31.119 52.108 31 51.5 31C50.266 31 49.105 31.48 48.232 32.354L42.742 37.844L42.128 35.387C43.101 34.71 43.93 33.845 44.572 32.847L45.5 32.555C46.882 32.094 48.088 31.173 48.895 29.962C49.618 28.876 50 27.614 50 26.31V17C50 12.038 45.962 8 41 8H33C28.038 8 24 12.038 24 17V20.382L21.317 21.723C19.271 22.746 18 24.802 18 27.09V28.042C16.953 28.145 16.011 28.695 15.445 29.601L7.097 42.959C6.379 44.107 6 45.43 6 46.783C6 50.763 9.237 54 13.217 54H22V70H62V52.646C62 48.766 60.311 45.093 57.365 42.568C56.72 42.015 56.025 41.535 55.297 41.119L57 39.414C57.645 38.769 58 37.912 58 37C58 36.534 57.905 36.082 57.728 35.666L67.086 26.328C67.675 25.739 68 24.955 68 24.121ZM54.914 32.5L62 25.414L63.583 26.997L56.489 34.075L54.914 32.5ZM56 27.586V26H57.586L58.086 26.5L56.5 28.086L56 27.586ZM21.673 39.708L24.538 35.063C24.84 34.545 25 33.954 25 33.354C25 33.07 24.962 32.791 24.893 32.522L26.203 31.212C26.87 31.808 27.648 32.271 28.517 32.56L29.429 32.847C30.07 33.845 30.9 34.71 31.873 35.387L31.189 38.122L21.673 39.708ZM28.106 29.308C28.154 29.635 28.219 29.957 28.302 30.272C28.061 30.133 27.833 29.974 27.621 29.793L28.106 29.308ZM31.724 40.06L35.001 42.682L30 44.557V40.347L31.724 40.06ZM30 46.693L37 44.068L44 46.693V47C44 47.552 43.551 48 43 48H37H31C30.449 48 30 47.552 30 47V46.693ZM44 44.557L38.999 42.682L42.271 40.064L44 40.369V44.557ZM44.915 38.499L46 37.414L47.55 38.964L44.915 38.499ZM40.874 38.62L37 41.719L33.126 38.62L33.691 36.361C34.716 36.769 35.831 37 37 37C38.169 37 39.284 36.769 40.309 36.361L40.874 38.62ZM37 35C33.14 35 30 31.86 30 28V26C30 25.385 29.826 24.801 29.523 24.284L30.456 23.617C31.029 23.207 31.444 22.637 31.704 22H44V28C44 31.86 40.86 35 37 35ZM39 18V20H35V18H39ZM41 20V18H48V20H41ZM47.23 28.852C46.837 29.442 46.303 29.924 45.697 30.274C45.888 29.546 46 28.786 46 28V22H48V26.31C48 27.217 47.734 28.096 47.23 28.852ZM33 10H41C44.519 10 47.432 12.613 47.92 16H26.08C26.568 12.613 29.481 10 33 10ZM26 18H29.382H33V20H31.918C31.638 18.855 30.611 18 29.381 18C28.977 18 28.572 18.096 28.21 18.276L26 19.382V18ZM22.211 23.513L29.105 20.066C29.497 19.869 30 20.182 30 20.618C30 21.161 29.736 21.674 29.294 21.989L23.419 26.186L24.581 27.814L27.887 25.452C27.96 25.625 28 25.811 28 26C28 26.372 27.849 26.737 27.586 27L23.806 30.78C23.664 30.659 23.516 30.544 23.354 30.447L20.086 28.486C20.058 28.469 20.028 28.458 20 28.442V27.09C20 25.565 20.847 24.194 22.211 23.513ZM18 52V50H16V52H13.217C12.214 52 11.285 51.702 10.489 51.209L12.555 49.832L11.446 48.168L8.985 49.809C8.371 48.954 8 47.914 8 46.783C8 45.953 8.208 45.145 8.584 44.411L11.552 45.895L12.447 44.106L9.621 42.693L13.055 37.199L17.485 39.857L18.514 38.142L14.115 35.502L17.141 30.66C17.534 30.031 18.42 29.818 19.056 30.2L22.324 32.161C22.741 32.411 23 32.868 23 33.354C23 33.6 22.935 33.842 22.823 34.034L21.812 35.674L19.555 34.169L18.446 35.833L20.762 37.377L17.516 42.64L14.448 41.107L13.553 42.896L16.461 44.35L15.149 46.477L16.851 47.528L20.279 41.97L22 41.68V45H20V47H22V52H18ZM24 41.347L28 40.68V47C28 48.654 29.346 50 31 50H37H43C44.654 50 46 48.654 46 47V40.722L50 41.428V68H48V64C48 62.897 47.103 62 46 62H40C38.897 62 38 62.897 38 64V68H36V64C36 62.897 35.103 62 34 62H28C26.897 62 26 62.897 26 64V68H24V41.347ZM46 68H40V64H46V68ZM34 68H28V64H34V68ZM60 52.646V56H56V52H59.965C59.977 52.215 60 52.429 60 52.646ZM57.825 46H56V48H58.996C59.286 48.642 59.51 49.312 59.676 50H56C54.897 50 54 50.897 54 52V56C54 57.103 54.897 58 56 58H60V64H56V66H60V68H52V62H58V60H52V41.865C53.487 42.316 54.871 43.064 56.063 44.085C56.731 44.658 57.316 45.304 57.825 46ZM55.586 38L53.376 40.211C52.603 39.922 51.802 39.712 50.987 39.573L47.414 36L48.5 34.914L51.293 37.707L52.707 36.293L49.943 33.529C50.954 32.795 52.455 32.869 53.354 33.768L55.586 36C55.849 36.263 56 36.628 56 37C56 37.372 55.849 37.737 55.586 38ZM65.672 24.913L64.999 25.585L63.414 24L64.086 23.328C64.298 23.117 64.579 23 64.879 23C65.497 23 66 23.503 66 24.121C66 24.421 65.883 24.702 65.672 24.913Z" fill="#1663C7"/>
</svg>
