<svg width="76" height="80" viewBox="0 0 76 80" fill="none" xmlns="http://www.w3.org/2000/svg">
<path d="M3 26C3 14.9543 11.9543 6 23 6H73V56C73 67.0457 64.0457 76 53 76H3V26Z" fill="#035FD7" fill-opacity="0.1"/>
<path d="M21.8135 23.6074H54.1865C54.7388 23.6074 55.1865 23.1602 55.1865 22.6074C55.1865 22.0547 54.7388 21.6074 54.1865 21.6074H21.8135C21.2612 21.6074 20.8135 22.0547 20.8135 22.6074C20.8135 23.1602 21.2612 23.6074 21.8135 23.6074Z" fill="#1663C7"/>
<path d="M21.8135 31.292H45.3325C45.8848 31.292 46.3325 30.8447 46.3325 30.292C46.3325 29.7393 45.8848 29.292 45.3325 29.292H21.8135C21.2612 29.292 20.8135 29.7393 20.8135 30.292C20.8135 30.8447 21.2612 31.292 21.8135 31.292Z" fill="#1663C7"/>
<path d="M21.8135 38.9775H33.9536C34.5059 38.9775 34.9536 38.5303 34.9536 37.9775C34.9536 37.4248 34.5059 36.9775 33.9536 36.9775H21.8135C21.2612 36.9775 20.8135 37.4248 20.8135 37.9775C20.8135 38.5303 21.2612 38.9775 21.8135 38.9775Z" fill="#1663C7"/>
<path d="M21.8135 46.6621H31.061C31.6133 46.6621 32.061 46.2148 32.061 45.6621C32.061 45.1094 31.6133 44.6621 31.061 44.6621H21.8135C21.2612 44.6621 20.8135 45.1094 20.8135 45.6621C20.8135 46.2148 21.2612 46.6621 21.8135 46.6621Z" fill="#1663C7"/>
<path d="M21.8135 54.3467H33.4395C33.9917 54.3467 34.4395 53.8994 34.4395 53.3467C34.4395 52.7939 33.9917 52.3467 33.4395 52.3467H21.8135C21.2612 52.3467 20.8135 52.7939 20.8135 53.3467C20.8135 53.8994 21.2612 54.3467 21.8135 54.3467Z" fill="#1663C7"/>
<path d="M47.0259 32.9316C42.5259 32.9316 38.8647 36.5928 38.8647 41.0928C38.8647 43.3655 39.8005 45.422 41.3047 46.903V57.3926C41.3047 57.7676 41.5142 58.1104 41.8472 58.2822C42.1792 58.4531 42.5815 58.4248 42.8857 58.2061L47.0225 55.251L51.1592 58.2061C51.332 58.3301 51.5356 58.3926 51.7402 58.3926C51.8965 58.3926 52.0537 58.3555 52.1978 58.2822C52.5308 58.1104 52.7402 57.7676 52.7402 57.3926V46.9089C54.248 45.4275 55.1865 43.3687 55.1865 41.0928C55.1865 36.5928 51.5259 32.9316 47.0259 32.9316ZM50.7402 55.4492L47.6035 53.209C47.2559 52.9609 46.7891 52.9609 46.4414 53.209L43.3047 55.4492V48.3466C44.422 48.9219 45.6849 49.2529 47.0259 49.2529C48.3641 49.2529 49.6246 48.9231 50.7402 48.3499V55.4492ZM47.0259 47.2529C43.6284 47.2529 40.8647 44.4893 40.8647 41.0928C40.8647 37.6953 43.6284 34.9316 47.0259 34.9316C50.4229 34.9316 53.1865 37.6953 53.1865 41.0928C53.1865 44.4893 50.4229 47.2529 47.0259 47.2529Z" fill="#1663C7"/>
<path d="M47.0259 37.0254C44.7832 37.0254 42.959 38.8496 42.959 41.0928C42.959 43.335 44.7832 45.1592 47.0259 45.1592C49.2686 45.1592 51.0928 43.335 51.0928 41.0928C51.0928 38.8496 49.2686 37.0254 47.0259 37.0254ZM47.0259 43.1592C45.8862 43.1592 44.959 42.2324 44.959 41.0928C44.959 39.9531 45.8862 39.0254 47.0259 39.0254C48.1655 39.0254 49.0928 39.9531 49.0928 41.0928C49.0928 42.2324 48.1655 43.1592 47.0259 43.1592Z" fill="#1663C7"/>
<path d="M62 15H14C13.4478 15 13 15.4473 13 16V64C13 64.5527 13.4478 65 14 65H62C62.5522 65 63 64.5527 63 64V16C63 15.4473 62.5522 15 62 15ZM61 63H15V17H61V63Z" fill="#1663C7"/>
</svg>
