<svg width="76" height="80" viewBox="0 0 76 80" fill="none" xmlns="http://www.w3.org/2000/svg">
<path d="M3 26C3 14.9543 11.9543 6 23 6H73V56C73 67.0457 64.0457 76 53 76H3V26Z" fill="#035FD7" fill-opacity="0.1"/>
<path d="M14.1364 18C10.8577 18 8 20.7785 8 24.1364V55.5C8 58.8579 10.8577 61.6364 14.1364 61.6364H61.8636C65.1423 61.6364 68 58.8579 68 55.5V24.1364C68 20.7785 65.1423 18 61.8636 18H14.1364ZM14.1364 20.7273H61.8636C63.4531 20.7273 65.2727 22.4716 65.2727 24.1364V35.7273H10.7273V24.1364C10.7273 22.4716 12.5469 20.7273 14.1364 20.7273ZM17.5455 27.5455C16.4158 27.5455 15.5 28.4612 15.5 29.5909C15.5 30.7206 16.4158 31.6364 17.5455 31.6364C18.6751 31.6364 19.5909 30.7206 19.5909 29.5909C19.5909 28.4612 18.6751 27.5455 17.5455 27.5455ZM58.4545 27.5455C57.3249 27.5455 56.4091 28.4612 56.4091 29.5909C56.4091 30.7206 57.3249 31.6364 58.4545 31.6364C59.5842 31.6364 60.5 30.7206 60.5 29.5909C60.5 28.4612 59.5842 27.5455 58.4545 27.5455ZM24.9176 28.2273C24.7385 28.2356 24.5628 28.2792 24.4006 28.3555C24.2383 28.4317 24.0926 28.5392 23.9719 28.6718C23.8512 28.8043 23.7578 28.9594 23.697 29.1281C23.6362 29.2967 23.6092 29.4757 23.6176 29.6548C23.626 29.8339 23.6696 30.0096 23.7459 30.1719C23.8222 30.3341 23.9297 30.4798 24.0623 30.6004C24.1949 30.7211 24.35 30.8145 24.5187 30.8753C24.6874 30.936 24.8664 30.963 25.0455 30.9545H50.9545C51.1352 30.9571 51.3146 30.9237 51.4823 30.8563C51.65 30.7889 51.8026 30.6889 51.9313 30.562C52.06 30.4352 52.1622 30.284 52.2319 30.1173C52.3017 29.9505 52.3376 29.7716 52.3376 29.5909C52.3376 29.4102 52.3017 29.2313 52.2319 29.0646C52.1622 28.8979 52.06 28.7467 51.9313 28.6198C51.8026 28.4929 51.65 28.3929 51.4823 28.3255C51.3146 28.2581 51.1352 28.2247 50.9545 28.2273H25.0455C25.0029 28.2253 24.9602 28.2253 24.9176 28.2273ZM10.7273 38.4545H65.2727V55.5C65.2727 57.1648 63.4531 58.9091 61.8636 58.9091H14.1364C12.5469 58.9091 10.7273 57.1648 10.7273 55.5V38.4545ZM15.5 41.1818C14.7074 41.1818 13.9444 41.8687 13.7102 42.4176C13.4761 42.9665 13.4545 43.4357 13.4545 43.9091V53.4545C13.4545 53.9279 13.4761 54.3972 13.7102 54.946C13.9444 55.4949 14.7074 56.1818 15.5 56.1818H26.4091C27.2017 56.1818 27.9647 55.4949 28.1989 54.946C28.433 54.3972 28.4545 53.9279 28.4545 53.4545V43.9091C28.4545 43.4357 28.433 42.9665 28.1989 42.4176C27.9647 41.8687 27.2017 41.1818 26.4091 41.1818H15.5ZM16.1818 43.9091H25.7273V53.4545H16.1818V43.9091ZM33.7812 43.9091C33.6021 43.9174 33.4265 43.961 33.2642 44.0373C33.1019 44.1135 32.9563 44.221 32.8356 44.3536C32.7148 44.4862 32.6214 44.6412 32.5606 44.8099C32.4998 44.9786 32.4729 45.1576 32.4813 45.3367C32.4897 45.5158 32.5332 45.6914 32.6096 45.8537C32.6859 46.0159 32.7934 46.1616 32.926 46.2823C33.0585 46.403 33.2136 46.4963 33.3823 46.5571C33.551 46.6179 33.73 46.6448 33.9091 46.6364H59.8182C59.9989 46.6389 60.1783 46.6055 60.346 46.5382C60.5136 46.4708 60.6663 46.3707 60.795 46.2439C60.9236 46.117 61.0258 45.9658 61.0956 45.7991C61.1653 45.6324 61.2012 45.4534 61.2012 45.2727C61.2012 45.092 61.1653 44.9131 61.0956 44.7464C61.0258 44.5797 60.9236 44.4285 60.795 44.3016C60.6663 44.1747 60.5136 44.0747 60.346 44.0073C60.1783 43.9399 59.9989 43.9065 59.8182 43.9091H33.9091C33.8665 43.9071 33.8238 43.9071 33.7812 43.9091ZM33.7812 50.7273C33.6021 50.7356 33.4265 50.7792 33.2642 50.8555C33.1019 50.9317 32.9563 51.0392 32.8356 51.1718C32.7148 51.3043 32.6214 51.4594 32.5606 51.6281C32.4998 51.7967 32.4729 51.9757 32.4813 52.1548C32.4897 52.3339 32.5332 52.5096 32.6096 52.6719C32.6859 52.8341 32.7934 52.9798 32.926 53.1004C33.0585 53.2211 33.2136 53.3145 33.3823 53.3753C33.551 53.436 33.73 53.463 33.9091 53.4545H59.8182C59.9989 53.4571 60.1783 53.4237 60.346 53.3563C60.5136 53.289 60.6663 53.1889 60.795 53.062C60.9236 52.9352 61.0258 52.784 61.0956 52.6172C61.1653 52.4505 61.2012 52.2716 61.2012 52.0909C61.2012 51.9102 61.1653 51.7313 61.0956 51.5646C61.0258 51.3979 60.9236 51.2467 60.795 51.1198C60.6663 50.9929 60.5136 50.8929 60.346 50.8255C60.1783 50.7581 59.9989 50.7247 59.8182 50.7273H33.9091C33.8665 50.7253 33.8238 50.7253 33.7812 50.7273Z" fill="#1663C7"/>
</svg>
