<svg width="76" height="80" viewBox="0 0 76 80" fill="none" xmlns="http://www.w3.org/2000/svg">
<path d="M3 26C3 14.9543 11.9543 6 23 6H73V56C73 67.0457 64.0457 76 53 76H3V26Z" fill="#035FD7" fill-opacity="0.1"/>
<path d="M66.707 47H62.707C62.154 47 61.707 47.448 61.707 48H51.707C51.441 48 51.187 48.105 51 48.293L45.367 53.926L25.535 50.477C24.584 50.313 23.612 50.573 22.871 51.196C22.132 51.818 21.707 52.73 21.707 53.697C21.707 54.854 22.328 55.936 23.328 56.52L45.143 69.245C45.652 69.542 46.22 69.692 46.789 69.691C47.289 69.691 47.789 69.576 48.252 69.345L58.943 64H61.707C61.707 64.552 62.154 65 62.707 65H66.707C67.26 65 67.707 64.552 67.707 64V48C67.707 47.448 67.26 47 66.707 47ZM58.707 62C58.552 62 58.398 62.036 58.26 62.105L47.357 67.557C46.971 67.749 46.52 67.734 46.151 67.518L24.337 54.793C23.948 54.566 23.707 54.146 23.707 53.697C23.707 53.322 23.872 52.968 24.159 52.726C24.446 52.485 24.822 52.384 25.193 52.447L43.637 55.655L42.827 56.465C42.105 57.188 41.707 58.149 41.707 59.171C41.707 61.283 43.425 63 45.535 63C46.558 63 47.519 62.602 48.242 61.878L53.414 56.707L52 55.293L46.828 60.465C46.487 60.805 46.017 61 45.535 61C44.527 61 43.707 60.18 43.707 59.171C43.707 58.683 43.897 58.223 44.242 57.878L52.121 50H61.707V62H58.707ZM63.707 49H65.707V63H63.707V49Z" fill="#1663C7"/>
<path d="M42.707 37C46.016 37 48.707 34.309 48.707 31C48.707 27.691 46.016 25 42.707 25C39.398 25 36.707 27.691 36.707 31C36.707 34.309 39.398 37 42.707 37ZM42.707 27C44.913 27 46.707 28.794 46.707 31C46.707 33.206 44.913 35 42.707 35C40.501 35 38.707 33.206 38.707 31C38.707 28.794 40.501 27 42.707 27Z" fill="#1663C7"/>
<path d="M15.121 21H22.707V24V27H17.707V29H23.707H30.707C31.81 29 32.707 29.897 32.707 31C32.707 31.533 32.499 32.035 32.12 32.413C31.741 32.791 31.239 33 30.707 33H23.707C23.573 33 23.443 33.027 23.322 33.078C23.2 33.129 23.091 33.202 22.999 33.294L20 36.293L21.414 37.707L22.707 36.414V38V42H7.707V44H23.707H28.707H56.707H61.707C62.26 44 62.707 43.552 62.707 43V38V24V19V15V11C62.707 10.448 62.26 10 61.707 10H23.707C23.154 10 22.707 10.448 22.707 11V15V19H14.707C14.441 19 14.187 19.105 14 19.293L7 26.293L8.414 27.707L15.121 21ZM60.707 22.874C59.304 22.511 58.196 21.404 57.834 20H60.707V22.874ZM60.707 18H56.707H28.707H24.707V16H60.707V18ZM27.58 20C27.218 21.404 26.11 22.511 24.707 22.874V20H27.58ZM30.707 35C31.773 35 32.778 34.583 33.534 33.827C34.291 33.071 34.707 32.067 34.707 31C34.707 28.794 32.913 27 30.707 27H24.707V24.91C27.214 24.487 29.193 22.507 29.617 20H55.797C56.22 22.507 58.2 24.486 60.707 24.91V37.09C58.2 37.513 56.221 39.493 55.797 42H29.617C29.194 39.493 27.214 37.514 24.707 37.09V35H30.707ZM24.707 42V39.126C26.11 39.489 27.218 40.596 27.58 42H24.707ZM60.707 42H57.834C58.196 40.596 59.304 39.489 60.707 39.126V42ZM24.707 12H60.707V14H24.707V12Z" fill="#1663C7"/>
</svg>
